<svg width="51" height="16" viewBox="0 0 192 79" fill="none" xmlns="http://www.w3.org/2000/svg">
<path d="M32.3865 13.007C34.2613 9.6449 35.5033 5.17337 35.1987 0.668213C32.4568 0.869936 29.1525 3.257 27.2075 6.55181C25.4733 9.37594 23.9266 14.0828 24.3719 18.4199C27.4184 18.8569 30.4883 16.2682 32.3865 13.007ZM39.1357 41.6853C39.0654 31.9017 44.7131 27.2957 44.9709 26.9931C41.8072 20.2354 36.8391 19.4621 35.1518 19.3276C30.7227 18.9578 26.9966 22.925 24.864 22.925C22.7315 22.925 19.5209 19.5294 16.0291 19.563C11.4594 19.6638 7.10055 23.3957 4.78052 29.2793C-0.000146866 41.0465 3.67909 58.5292 8.31915 68.0438C10.5923 72.7843 13.2873 78.0628 16.8259 77.8274C20.2005 77.6257 21.5363 74.6671 25.5905 74.6671C29.6447 74.6671 30.8633 77.8274 34.4253 77.7265C38.128 77.6257 40.4715 72.9861 42.6509 68.2456C45.2287 62.8326 46.2833 57.6887 46.3536 57.3525C46.2833 57.218 39.206 53.2844 39.1357 41.6853ZM116.493 24.3707C107.588 24.3707 102.011 31.1621 101.589 40.5086H108.573C109.229 35.8689 111.924 33.0112 116.189 33.0112C120.712 33.0112 123.454 36.4741 123.454 42.2232V46.2577L113.564 47.0646C104.987 47.737 100.113 53.3516 100.113 62.3956C100.113 71.7421 105.081 78.0291 112.111 78.0291C116.845 78.0291 121.462 74.3645 123.547 68.5818H123.782V77.155H130.812V41.4836C130.835 31.0612 125.258 24.3707 116.493 24.3707ZM123.454 57.7896C123.454 64.5473 119.399 69.6576 114.22 69.6576C110.236 69.6576 107.612 66.7326 107.612 62.1266C107.612 57.6887 110.119 54.8646 114.595 54.4275L123.477 53.6542V57.7896H123.454ZM184.501 5.8794V33.9526H184.407C182.368 28.2371 178.197 24.4716 173.018 24.4716C163.949 24.4716 157.879 34.8939 157.879 51.2335C157.879 67.5731 163.949 78.0628 173.088 78.0628C178.361 78.0628 182.485 74.23 184.618 68.3128L184.735 68.4473V77.1886H192V5.8794H184.501ZM175.033 69.0188C169.128 69.0188 165.519 62.1602 165.519 51.2335C165.519 40.3405 169.221 33.4483 175.033 33.4483C180.751 33.4483 184.524 40.5086 184.524 51.2335C184.548 62.093 180.751 69.0188 175.033 69.0188ZM145.271 34.1543H145.131V25.0431H138.1V77.155H145.599V46.1232C145.599 38.7603 148.365 34.2215 153.145 34.2215C154.575 34.2215 156.028 34.4905 156.614 34.7931V24.875C156.075 24.7069 155.02 24.4716 153.942 24.4716C149.7 24.4716 146.466 28.069 145.271 34.1543ZM75.5531 68.7162C66.4605 68.7162 60.6721 58.2602 60.6721 41.5844C60.6721 25.144 66.5308 14.5199 75.5063 14.5199C82.2554 14.5199 87.5048 20.6724 88.9109 29.75H96.5271C95.2382 14.957 86.7549 4.83716 75.5063 4.83716C61.6564 4.83716 52.8215 19.025 52.8215 41.5508C52.8215 64.2447 61.5861 78.2981 75.5063 78.2981C86.8955 78.2981 94.6992 69.5904 96.574 54.9654H88.9109C87.3642 63.6395 82.4898 68.7162 75.5531 68.7162Z" fill="black"/>
</svg>
